<svg xmlns="http://www.w3.org/2000/svg" viewBox="0 0 1040 500" font-family="-apple-system, Segoe UI, Helvetica, Arial, sans-serif">
  <defs>
    <marker id="arrow" markerWidth="10" markerHeight="10" refX="8" refY="3" orient="auto" markerUnits="strokeWidth">
      <path d="M0,0 L8,3 L0,6 Z" fill="#555"/>
    </marker>
  </defs>

  <rect x="0" y="0" width="1040" height="500" fill="#ffffff"/>

  <!-- region boundaries -->
  <rect x="20" y="40" width="560" height="430" rx="12" fill="#f4f8ff" stroke="#326ce5" stroke-width="1.5" stroke-dasharray="6 4"/>
  <text x="36" y="66" font-size="16" font-weight="700" fill="#326ce5">Kubernetes cluster</text>
  <rect x="620" y="40" width="400" height="430" rx="12" fill="#fff8ee" stroke="#d97706" stroke-width="1.5" stroke-dasharray="6 4"/>
  <text x="636" y="66" font-size="16" font-weight="700" fill="#d97706">AWS</text>

  <!-- deployment holds the pods -->
  <rect x="56" y="110" width="464" height="320" rx="10" fill="#eef3ff" stroke="#326ce5" stroke-width="1.2" stroke-dasharray="4 3"/>
  <text x="72" y="134" font-size="13" font-weight="700" fill="#2a4a8a">Deployment  •  RollingUpdate, replicas=N</text>

  <g font-size="12">
    <rect x="330" y="160" width="190" height="230" rx="6" fill="#ffffff" stroke="#326ce5" stroke-width="2.5"/>
    <text x="425" y="188" text-anchor="middle" font-weight="700">Pod (leader)</text>
    <text x="425" y="214" text-anchor="middle" fill="#333">reconcile loop every 5m:</text>
    <text x="425" y="238" text-anchor="middle" fill="#333">discover &#8594; measure &#8594;</text>
    <text x="425" y="258" text-anchor="middle" fill="#333">ModifyVolume &#8594; wait &#8594;</text>
    <text x="425" y="278" text-anchor="middle" fill="#333">resize &#8594; verify</text>

    <rect x="86" y="200" width="170" height="150" rx="6" fill="#f5f7fa" stroke="#8a94a6" stroke-dasharray="5 4"/>
    <text x="171" y="262" text-anchor="middle" font-weight="700">Pod (standby)</text>
    <text x="171" y="284" text-anchor="middle" fill="#333">no reconcile</text>
  </g>

  <!-- aws services -->
  <g font-size="12">
    <rect x="660" y="110" width="330" height="80" rx="6" fill="#ffe9c7" stroke="#d97706"/>
    <text x="825" y="136" text-anchor="middle" font-weight="700">SSM RunShellScript</text>
    <text x="825" y="156" text-anchor="middle" fill="#333">measure-rootfs.sh</text>
    <text x="825" y="174" text-anchor="middle" fill="#333">resize-rootfs.sh</text>

    <rect x="660" y="250" width="330" height="92" rx="6" fill="#ffe9c7" stroke="#d97706"/>
    <text x="825" y="284" text-anchor="middle" font-weight="700">EC2 instances</text>
    <text x="825" y="306" text-anchor="middle" fill="#333">tag-filtered, standalone</text>

    <rect x="660" y="392" width="330" height="72" rx="6" fill="#ffe9c7" stroke="#d97706"/>
    <text x="825" y="424" text-anchor="middle" font-weight="700">EBS root volume</text>
    <text x="825" y="444" text-anchor="middle" fill="#333">grown by ModifyVolume</text>
  </g>

  <!-- edges -->
  <g stroke="#555" stroke-width="1.5" fill="none">
    <path d="M256,260 H330" marker-end="url(#arrow)" stroke-dasharray="5 4"/>
    <path d="M520,230 L660,158" marker-end="url(#arrow)"/>
    <path d="M520,320 L660,296" marker-end="url(#arrow)"/>
    <path d="M825,190 V250" marker-end="url(#arrow)"/>
    <path d="M825,342 V392" marker-end="url(#arrow)"/>
  </g>

  <!-- edge labels -->
  <g font-size="11" fill="#444">
    <text x="262" y="252">leader election</text>
    <text x="540" y="186">RunShellScript</text>
    <text x="540" y="324">Describe / ModifyVolume</text>
    <text x="831" y="224">growpart + resize2fs</text>
    <text x="831" y="372">root volume</text>
  </g>
</svg>
